<svg version="1.1" xmlns="http://www.w3.org/2000/svg" xmlns:xlink="http://www.w3.org/1999/xlink" width="20.5208" height="6.25" viewBox="0,0,20.5208,6.25"><g transform="translate(-950.625,-536.87285)"><g data-paper-data="{&quot;isPaintingLayer&quot;:true}" fill-rule="nonzero" stroke-linecap="butt" stroke-linejoin="miter" stroke-miterlimit="10" stroke-dasharray="" stroke-dashoffset="0" style="mix-blend-mode: normal"><path d="M967.06682,541.47981c-2.25279,0 -4.07898,-0.62455 -4.07898,-1.39498c0,-0.77042 1.82619,-1.39498 4.07898,-1.39498c2.25279,0 4.07898,0.62455 4.07898,1.39498c0,0.77042 -1.82619,1.39498 -4.07898,1.39498z" fill="#bababa" stroke="none" stroke-width="0"/><path d="M950.875,542.87285v-5.66667h11.66666v5.66667z" fill="#337d1a" stroke="#286215" stroke-width="0.5"/><path d="M954.04167,539.99785c0,-1.72589 3.37653,-3.125 7.54167,-3.125c4.16515,0 7.54166,1.39911 7.54166,3.125c0,1.72589 -3.37652,3.125 -7.54166,3.125c-4.16515,0 -7.54167,-1.39911 -7.54167,-3.125z" fill="#337d1a" stroke="none" stroke-width="0"/><path d="M953.00962,543.03952v-6.03161h0.83334v6.03161z" fill="#b76b00" stroke="none" stroke-width="0"/><path d="M956.69419,543.08871v-6.10345h0.72414v6.10345z" fill="#b76b00" stroke="none" stroke-width="0"/><text transform="translate(965.6351,538.67331) rotate(90.44518) scale(0.05341,0.05341)" font-size="40" xml:space="preserve" fill="#b76b00" fill-rule="nonzero" stroke="none" stroke-width="1" stroke-linecap="butt" stroke-linejoin="miter" stroke-miterlimit="10" stroke-dasharray="" stroke-dashoffset="0" font-family="Sans Serif" font-weight="normal" text-anchor="start" style="mix-blend-mode: normal"><tspan x="0" dy="0">HE</tspan></text><text transform="translate(961.56184,537.48959) rotate(88.52947) scale(0.01695,0.02529) skewX(0.00348)" font-size="40" xml:space="preserve" fill="#b76b00" fill-rule="nonzero" stroke="none" stroke-width="1" stroke-linecap="butt" stroke-linejoin="miter" stroke-miterlimit="10" stroke-dasharray="" stroke-dashoffset="0" font-family="Sans Serif" font-weight="normal" text-anchor="start" style="mix-blend-mode: normal"><tspan x="0" dy="0">     Made By</tspan><tspan x="0" dy="46.15px">Anders Studios</tspan><tspan x="0" dy="46.15px">       Factory</tspan></text></g></g></svg>