<svg version="1.1" xmlns="http://www.w3.org/2000/svg" xmlns:xlink="http://www.w3.org/1999/xlink" width="73.51" height="34.5" viewBox="0,0,73.51,34.5"><g transform="translate(-203.245,-162.75)"><g data-paper-data="{&quot;isPaintingLayer&quot;:true}" fill-rule="nonzero" stroke-linecap="butt" stroke-linejoin="miter" stroke-miterlimit="10" stroke-dasharray="" stroke-dashoffset="0" style="mix-blend-mode: normal"><path d="M203.245,197.25v-34.5h73.51v34.5z" fill="#2eb310" stroke="none" stroke-width="0"/><path d="M254.45932,182.79963v-8h20.25v8z" fill="#2eb310" stroke="#25920d" stroke-width="1"/><path d="M230.60002,195.37016v-31.14286h13.28571v31.14286z" fill="#22830c" stroke="#25920d" stroke-width="0.5"/><path d="M243.70932,196.29963v-33.25h13.5v33.25z" fill="#2eb310" stroke="#25920d" stroke-width="0.5"/><path d="M241.13897,166.7948v-1.46154h1.92692v1.46154z" fill="#ac7a13" stroke="#071c03" stroke-width="0"/><path d="M243.01974,166.62172v-1.07692h6.61538v1.07692z" fill="#071c03" stroke="#071c03" stroke-width="0.5"/><path d="M249.86589,166.16018v-0.23077h3.23077v0.23077z" fill="#ac7a13" stroke="#071c03" stroke-width="0.5"/><path d="M204.52544,167.37103v-4h11.33333v4z" fill="#929292" stroke="none" stroke-width="0"/><path d="M204.85878,195.70436v-4h11.33333v4z" fill="#929292" stroke="none" stroke-width="0"/><path d="M203.73973,166.18055v-1.83333h2.83333v1.83333z" fill="#929292" stroke="none" stroke-width="0"/><path d="M204.1683,194.60913v-1.83334h2.83334v1.83334z" fill="#929292" stroke="none" stroke-width="0"/><path d="M206.60379,185.01302v-11.57143h20.07143v11.57143z" fill="#2eb310" stroke="#25920d" stroke-width="0.5"/></g></g></svg>