<svg version="1.1" xmlns="http://www.w3.org/2000/svg" xmlns:xlink="http://www.w3.org/1999/xlink" width="112.86109" height="47.83945" viewBox="0,0,112.86109,47.83945"><g transform="translate(-916.75,-516.08028)"><g data-paper-data="{&quot;isPaintingLayer&quot;:true}" fill-rule="nonzero" stroke-linejoin="miter" stroke-miterlimit="10" stroke-dasharray="" stroke-dashoffset="0" style="mix-blend-mode: normal"><path d="M917,563.66973v-47.33945h86v47.33945z" fill="#1f8115" stroke="#1f7f14" stroke-width="0.5" stroke-linecap="butt"/><path d="M1001.02776,541.72713v-6.93333h28.33333v6.93333z" fill="#c2c2c2" stroke="#808080" stroke-width="0.5" stroke-linecap="butt"/><path d="M994.47794,525.86326c2.08438,0 3.77411,1.74337 3.77411,3.89392c0,2.15055 -1.68973,3.89391 -3.77411,3.89391c-2.08438,0 -3.7741,-1.74336 -3.7741,-3.89391c0,-2.15055 1.68972,-3.89392 3.7741,-3.89392z" fill="#2db11d" stroke="#1f7f14" stroke-width="0.5" stroke-linecap="butt"/><path d="M990.02776,545.1938v-12.86667h12.66667v12.86667z" fill="#30c31f" stroke="#1f7f14" stroke-width="0.5" stroke-linecap="butt"/><path d="M951.56109,553.32713l-0.6,-30.53333l13.5288,-1.54149l16.79257,0.07176l5.34529,1.66973l4,1.86667l0.2,27.4l-6.73333,3.66667l-18.79509,-0.30942l-13.73824,-2.29058z" fill="#279f1a" stroke="#1f7f14" stroke-width="0.5" stroke-linecap="butt"/><path d="M978.35057,549.32159c0,2.77918 -2.22614,5.03214 -4.97223,5.03214c-2.74608,0 -4.97223,-2.25296 -4.97223,-5.03214c0,-2.77918 2.22615,-5.03213 4.97223,-5.03213c2.74609,0 4.97223,2.25296 4.97223,5.03213z" fill="#2db11d" stroke="#1f7f14" stroke-width="0.5" stroke-linecap="butt"/><path d="M978.72224,560.1155c0,2.87877 -3.13734,2.93542 -7.00747,2.93542c-3.87012,0 -7.00747,-0.05664 -7.00747,-2.93542c0,-2.87877 3.13735,-2.93542 7.00747,-2.93542c3.87012,0 7.00747,0.05665 7.00747,2.93542z" fill="#917717" stroke="#1f7f14" stroke-width="0" stroke-linecap="butt"/><g stroke="#1f7f14" stroke-width="0.5"><path d="M941.99875,562.94156v-7.17573h16.71061v7.17573z" fill="#2db11d" stroke-linecap="butt"/><path d="M958.56191,557.48603h-16.66146" fill="none" stroke-linecap="round"/><path d="M957.62808,557.24029l0.04915,0.54064" fill="none" stroke-linecap="round"/><path d="M942.88343,557.87922v-0.73723" fill="none" stroke-linecap="round"/></g><g data-paper-data="{&quot;index&quot;:null}" stroke="#1f7f14" stroke-width="0.5"><path d="M939.88802,517.2068v7.17573h-16.71061v-7.17573z" fill="#2db11d" stroke-linecap="butt"/><path d="M923.07911,522.66232h16.66146" fill="none" stroke-linecap="round"/><path d="M938.80675,522.90807l0.04915,-0.54064" fill="none" stroke-linecap="round"/><path d="M924.06209,523.00636v-0.73723" fill="none" stroke-linecap="round"/></g></g></g></svg>