<svg version="1.1" xmlns="http://www.w3.org/2000/svg" xmlns:xlink="http://www.w3.org/1999/xlink" width="56.53542" height="37.01697" viewBox="0,0,56.53542,37.01697"><g transform="translate(-931.73229,-521.49152)"><g data-paper-data="{&quot;isPaintingLayer&quot;:true}" fill-rule="nonzero" stroke-linejoin="miter" stroke-miterlimit="10" stroke-dasharray="" stroke-dashoffset="0" style="mix-blend-mode: normal"><path d="M931.73229,558.5085v-37.01697h56.53542v37.01697z" fill="#229200" stroke="none" stroke-width="0" stroke-linecap="butt"/><path d="M975.49657,531.01732l8.95274,0.10918" fill="none" stroke="#576653" stroke-width="2" stroke-linecap="round"/><path d="M986.08701,548.48607l-9.38946,-0.10918" fill="none" stroke="#576653" stroke-width="1" stroke-linecap="round"/><path d="M977.17641,548.28903c0,3.91718 -3.33697,7.09269 -7.45333,7.09269c-4.11637,0 -7.45334,-3.17551 -7.45334,-7.09269c0,-3.91718 3.33697,-7.0927 7.45334,-7.0927c4.11637,0 7.45333,3.17551 7.45333,7.0927z" fill="#229200" stroke="#186600" stroke-width="0.5" stroke-linecap="butt"/><path d="M975.73383,531.4589c0,3.91718 -3.44462,7.09269 -7.69377,7.09269c-4.24915,0 -7.69377,-3.17551 -7.69377,-7.09269c0,-3.91718 3.44462,-7.0927 7.69377,-7.0927c4.24915,0 7.69377,3.17551 7.69377,7.0927z" fill="#229200" stroke="#186600" stroke-width="0.5" stroke-linecap="butt"/><path d="M935.98247,535.73101v-10.59043h12.00977v10.59043z" fill="none" stroke="#186600" stroke-width="0.5" stroke-linecap="butt"/><path d="M935.87329,553.19976v-10.91797h12.99239v10.91797z" fill="none" stroke="#186600" stroke-width="0.5" stroke-linecap="butt"/></g></g></svg>