<svg version="1.1" xmlns="http://www.w3.org/2000/svg" xmlns:xlink="http://www.w3.org/1999/xlink" width="77.52501" height="55.67811" viewBox="0,0,77.52501,55.67811"><g transform="translate(-923.31943,-514.53716)"><g data-paper-data="{&quot;isPaintingLayer&quot;:true}" fill-rule="nonzero" stroke-width="0.5" stroke-linecap="butt" stroke-linejoin="miter" stroke-miterlimit="10" stroke-dasharray="" stroke-dashoffset="0" style="mix-blend-mode: normal"><path d="M982.69443,550.34027c0,8.56041 -7.3873,15.5 -16.5,15.5c-9.1127,0 -16.5,-6.93959 -16.5,-15.5c0,-8.56041 7.3873,-15.5 16.5,-15.5c9.1127,0 16.5,6.93959 16.5,15.5z" fill="#a8a8a8" stroke="#a8a8a8"/><path d="M962.31943,544.34027c0,10.56245 -6.93959,19.125 -15.5,19.125c-8.56041,0 -15.5,-8.56255 -15.5,-19.125c0,-10.56245 6.93959,-19.125 15.5,-19.125c8.56041,0 15.5,8.56255 15.5,19.125z" fill="#a8a8a8" stroke="#a8a8a8"/><path d="M974.81943,539.96527c0,9.1127 -8.56255,16.5 -19.125,16.5c-10.56245,0 -19.125,-7.3873 -19.125,-16.5c0,-9.1127 8.56255,-16.5 19.125,-16.5c10.56245,0 19.125,7.3873 19.125,16.5z" fill="#a8a8a8" stroke="#a8a8a8"/><path d="M961.5068,521.82707c6.35811,7.55199 6.32047,18.04522 -0.08408,23.43729c-6.40455,5.39207 -16.75073,3.64111 -23.10884,-3.91088c-6.35811,-7.55199 -6.32047,-18.04522 0.08408,-23.43729c6.40455,-5.39207 16.75073,-3.64111 23.10884,3.91088z" fill="#a8a8a8" stroke="#a8a8a8"/><path d="M972.81943,548.09027c0,12.08123 -11.02499,21.875 -24.625,21.875c-13.60001,0 -24.625,-9.79377 -24.625,-21.875c0,-12.08123 11.02499,-21.875 24.625,-21.875c13.60001,0 24.625,9.79377 24.625,21.875z" fill="#a8a8a8" stroke="#a8a8a8"/><path d="M996.31943,544.71527c0,10.76955 -9.96166,19.5 -22.25,19.5c-12.28834,0 -22.25,-8.73045 -22.25,-19.5c0,-10.76955 9.96166,-19.5 22.25,-19.5c12.28834,0 22.25,8.73045 22.25,19.5z" fill="#a8a8a8" stroke="#a8a8a8"/><path d="M975.31943,564.84027c0,1.58782 -4.0854,2.875 -9.125,2.875c-5.0396,0 -9.125,-1.28718 -9.125,-2.875c0,-1.58782 4.0854,-2.875 9.125,-2.875c5.0396,0 9.125,1.28718 9.125,2.875z" fill="#a8a8a8" stroke="#a8a8a8"/><path d="M983.81943,524.45463c0,4.97644 -6.77169,9.01064 -15.125,9.01064c-8.35331,0 -15.125,-4.0342 -15.125,-9.01064c0,-4.97644 6.77169,-9.01064 15.125,-9.01064c8.35331,0 15.125,4.0342 15.125,9.01064z" fill="#a8a8a8" stroke="#a8a8a8"/><path d="M984.69443,562.96527c-8.62945,0 -15.625,-3.86154 -15.625,-8.625c0,-4.76346 6.99555,-8.625 15.625,-8.625c8.62945,0 15.625,3.86154 15.625,8.625c0,4.76346 -6.99555,8.625 -15.625,8.625z" fill="#a8a8a8" stroke="#a8a8a8"/><path d="M935.39535,533.27255c1.42454,-5.69815 6.28762,-0.11516 7.19579,2.41311c1.29478,3.60454 3.96074,10.83674 1.7278,14.55831c-1.16519,1.94198 -3.39282,3.2425 -4.39502,5.22207c-0.03767,0.07441 4.43481,4.1823 -0.70449,5.26019c-2.13515,0.44781 -4.33732,-1.80756 -5.74306,-3.03241c-4.75629,-4.14425 -7.79961,-8.21004 -5.9265,-15.38543c0.72098,-2.76188 0.97505,-4.86945 3.33266,-5.94505c0.30959,-0.1963 0.66528,-0.32643 1.04717,-0.3705c0.02073,-0.00559 0.04158,-0.01113 0.06255,-0.01661c1.20004,-0.31375 0.99234,-2.25 3.24107,-2.25z" fill="#00521d" stroke="none"/><path d="M949.21943,533.02289c0.03148,-2.69136 -0.85314,-6.08767 0.40369,-8.44421c2.80981,-5.26839 6.62207,3.7652 6.86102,3.95637c1.25904,1.00723 4.08941,1.32538 5.89463,2.98808c3.98912,3.67419 1.11631,10.8588 0.32033,15.10171c-0.19467,1.03765 0.56713,2.14786 0.39534,3.22638c-0.33619,2.1106 -7.53608,5.08278 -9.77254,2.84631c-1.57708,-1.57708 -4.27533,-7.48539 -4.54883,-8.95629c-0.26863,-1.44469 0.20555,-4.84272 -0.44746,-5.98549c-0.73685,-0.43488 -1.23117,-1.23698 -1.23117,-2.15454c0,-1.25113 0.91905,-2.2876 2.11886,-2.47113c0.00364,-0.0351 0.00571,-0.07083 0.00614,-0.10721z" fill="#00521d" stroke="none"/><path d="M1000.46943,552.60123c0,0.01885 -0.00021,0.03764 -0.00062,0.05639c0.2381,0.38279 0.37562,0.83464 0.37562,1.31861c0,0.64025 -0.24068,1.22428 -0.63649,1.66657c-0.11179,3.7622 -6.84789,7.56132 -9.61351,7.70843c-2.07846,0.11056 -8.96121,0.71337 -6.437,-3.70401c-0.04017,-0.02827 -0.07947,-0.05768 -0.11785,-0.08821c-0.96598,-0.14794 -2.92607,-4.05069 -3.18899,-5.05443c-0.94315,-3.6007 -5.29043,-7.30064 -0.27092,-10.16893c0.28534,-0.16305 0.68942,-0.04534 1.0928,0.17491c1.58864,-0.77933 3.31917,1.54766 4.92195,1.59067c0.19499,0.00523 0.84616,0.2694 0.875,0.21875c1.55391,-2.72932 -0.88689,-5.42708 3.47917,-5.42708c1.02784,0 -1.45285,-2.20263 -0.16667,-4.16667c0.74716,-1.14093 2.63375,-1.28964 3.6875,-0.6875c1.20339,0.68765 1.62291,2.48873 1.74918,4.41308c0.06478,0.08466 0.12764,0.17604 0.18832,0.27442c1.05608,1.71197 0.70807,5.61203 0.45308,6.88975c-0.00976,0.04889 -0.02026,0.09677 -0.0315,0.14364c0.37692,0.66741 0.88262,1.29632 1.38843,1.92462c0.27086,0.15627 0.50968,0.36186 0.70418,0.6045c0.90867,0.37437 1.5483,1.26873 1.5483,2.31248z" fill="#00521d" stroke="none"/><path d="M983.45267,527.66828c0.09301,1.67425 -3.72214,1.43735 -4.48324,0.74544c-0.08944,-0.08131 -0.57886,-0.64496 -1.26383,-1.44778c-0.28636,-0.21821 -0.52421,-0.49683 -0.69453,-0.81685c-2.10491,-2.48283 -5.14995,-6.13085 -5.22914,-6.29787c-0.38681,-0.81586 -0.46568,-2.06007 0,-2.875c0.82096,-1.43667 2.68147,-1.43104 4.68927,-0.69378c1.46312,-0.19264 3.26492,1.16341 4.75716,2.85454c0.60047,0.22702 1.09065,0.67861 1.36805,1.25231c0.58919,0.38954 1.00376,1.0219 1.1011,1.75447c0.00767,0.02722 0.01497,0.05471 0.02191,0.08246v0.25c0,0.10817 -0.00687,0.21474 -0.0202,0.3193c0.1835,0.39121 0.31865,0.7495 0.3952,1.0557l0,0.43092c0.44654,1.05128 0.84825,2.12007 -0.52083,2.90241z" fill="#00521d" stroke="none"/></g></g></svg>