<svg version="1.1" xmlns="http://www.w3.org/2000/svg" xmlns:xlink="http://www.w3.org/1999/xlink" width="18.875" height="35" viewBox="0,0,18.875,35"><g transform="translate(-952.875,-523.49785)"><g data-paper-data="{&quot;isPaintingLayer&quot;:true}" fill-rule="nonzero" stroke-linecap="butt" stroke-linejoin="miter" stroke-miterlimit="10" stroke-dasharray="" stroke-dashoffset="0" style="mix-blend-mode: normal"><g><path d="M953.5,558.24785v-5.66667h11.66666v5.66667z" fill="#a7a7a7" stroke="#989898" stroke-width="0.5"/><path d="M956.66667,555.37285c0,-1.72589 3.37653,-3.125 7.54167,-3.125c4.16515,0 7.54166,1.39911 7.54166,3.125c0,1.72589 -3.37652,3.125 -7.54166,3.125c-4.16515,0 -7.54167,-1.39911 -7.54167,-3.125z" fill="#a7a7a7" stroke="none" stroke-width="0"/><path d="M955.63462,558.41452v-6.03161h0.83334v6.03161z" fill="#b76b00" stroke="none" stroke-width="0"/><path d="M959.31919,558.46371v-6.10345h0.72414v6.10345z" fill="#b76b00" stroke="none" stroke-width="0"/><path d="M971.33765,556.27148c-0.20854,0 -0.37759,-0.40069 -0.37759,-0.89498c0,-0.49428 0.16905,-0.89498 0.37759,-0.89498c0.20854,0 0.37759,0.40069 0.37759,0.89498c0,0.49428 -0.16905,0.89498 -0.37759,0.89498z" fill="#b76b00" stroke="none" stroke-width="0"/><text transform="translate(968.34343,554.04831) rotate(90.44518) scale(0.05341,0.05341)" font-size="40" xml:space="preserve" fill="#b76b00" fill-rule="nonzero" stroke="none" stroke-width="1" stroke-linecap="butt" stroke-linejoin="miter" stroke-miterlimit="10" stroke-dasharray="" stroke-dashoffset="0" font-family="Sans Serif" font-weight="normal" text-anchor="start" style="mix-blend-mode: normal"><tspan x="0" dy="0">AP</tspan></text><text transform="translate(964.18684,552.86459) rotate(88.52947) scale(0.01695,0.02529) skewX(0.00348)" font-size="40" xml:space="preserve" fill="#b76b00" fill-rule="nonzero" stroke="none" stroke-width="1" stroke-linecap="butt" stroke-linejoin="miter" stroke-miterlimit="10" stroke-dasharray="" stroke-dashoffset="0" font-family="Sans Serif" font-weight="normal" text-anchor="start" style="mix-blend-mode: normal"><tspan x="0" dy="0">     Made By</tspan><tspan x="0" dy="46.15px">Anders Studios</tspan><tspan x="0" dy="46.15px">       Factory</tspan></text></g><g><path d="M953.125,529.49785v-5.66667h11.66666v5.66667z" fill="#a7a7a7" stroke="#989898" stroke-width="0.5"/><path d="M956.29167,526.62285c0,-1.72589 3.37653,-3.125 7.54167,-3.125c4.16515,0 7.54166,1.39911 7.54166,3.125c0,1.72589 -3.37652,3.125 -7.54166,3.125c-4.16515,0 -7.54167,-1.39911 -7.54167,-3.125z" fill="#a7a7a7" stroke="none" stroke-width="0"/><path d="M955.25962,529.66452v-6.03161h0.83334v6.03161z" fill="#b76b00" stroke="none" stroke-width="0"/><path d="M958.94419,529.71371v-6.10345h0.72414v6.10345z" fill="#b76b00" stroke="none" stroke-width="0"/><path d="M970.96265,527.52148c-0.20854,0 -0.37759,-0.40069 -0.37759,-0.89498c0,-0.49428 0.16905,-0.89498 0.37759,-0.89498c0.20854,0 0.37759,0.40069 0.37759,0.89498c0,0.49428 -0.16905,0.89498 -0.37759,0.89498z" fill="#b76b00" stroke="none" stroke-width="0"/><text transform="translate(967.96843,525.29831) rotate(90.44518) scale(0.05341,0.05341)" font-size="40" xml:space="preserve" fill="#b76b00" fill-rule="nonzero" stroke="none" stroke-width="1" stroke-linecap="butt" stroke-linejoin="miter" stroke-miterlimit="10" stroke-dasharray="" stroke-dashoffset="0" font-family="Sans Serif" font-weight="normal" text-anchor="start" style="mix-blend-mode: normal"><tspan x="0" dy="0">AP</tspan></text><text transform="translate(963.81184,524.11459) rotate(88.52947) scale(0.01695,0.02529) skewX(0.00348)" font-size="40" xml:space="preserve" fill="#b76b00" fill-rule="nonzero" stroke="none" stroke-width="1" stroke-linecap="butt" stroke-linejoin="miter" stroke-miterlimit="10" stroke-dasharray="" stroke-dashoffset="0" font-family="Sans Serif" font-weight="normal" text-anchor="start" style="mix-blend-mode: normal"><tspan x="0" dy="0">     Made By</tspan><tspan x="0" dy="46.15px">Anders Studios</tspan><tspan x="0" dy="46.15px">       Factory</tspan></text></g></g></g></svg>