<svg version="1.1" xmlns="http://www.w3.org/2000/svg" xmlns:xlink="http://www.w3.org/1999/xlink" width="88.60191" height="40.78155" viewBox="0,0,88.60191,40.78155"><g transform="translate(-201.58132,-159.46845)"><g data-paper-data="{&quot;isPaintingLayer&quot;:true}" fill-rule="nonzero" stroke-width="0.5" stroke-linejoin="miter" stroke-miterlimit="10" stroke-dasharray="" stroke-dashoffset="0" style="mix-blend-mode: normal"><path d="M201.83132,200v-40h76.33735v40z" fill="#b58522" stroke="#89641a" stroke-linecap="butt"/><path d="M212.35323,185.97995v-11.77778h13.88889v11.77778z" fill="#b58522" stroke="#89641a" stroke-linecap="butt"/><path d="M269.86585,199.81845l-0.1,-40.1" fill="none" stroke="#89641a" stroke-linecap="round"/><path d="M251.95788,181.4447v-3.22222h35.11111v3.22222z" fill="#b58522" stroke="#89641a" stroke-linecap="butt"/><path d="M254.25504,180.1495c0,8.93167 -7.34253,16.17222 -16.4,16.17222c-9.05747,0 -16.4,-7.24055 -16.4,-16.17222c0,-8.93167 7.34253,-16.17222 16.4,-16.17222c9.05747,0 16.4,7.24056 16.4,16.17222z" fill="#b58522" stroke="#89641a" stroke-linecap="butt"/><path d="M287.15546,182.33359v-4.77778h2.77778v4.77778z" fill="#b58522" stroke="#9c721d" stroke-linecap="butt"/><path d="M236.31944,180.09576c0,3.54383 -2.77335,6.41667 -6.19444,6.41667c-3.4211,0 -6.19444,-2.87284 -6.19444,-6.41667c0,-3.54383 2.77335,-6.41667 6.19444,-6.41667c3.4211,0 6.19444,2.87284 6.19444,6.41667z" fill="#b58522" stroke="#89641a" stroke-linecap="butt"/><path d="M256.23433,175.79904v-11.2h10.4v11.2z" fill="#b58522" stroke="#89641a" stroke-linecap="butt"/><path d="M255.74277,196.58088v-11.9h11.1v11.9z" fill="#b58522" stroke="#89641a" stroke-linecap="butt"/></g></g></svg>