<svg version="1.1" xmlns="http://www.w3.org/2000/svg" xmlns:xlink="http://www.w3.org/1999/xlink" width="77.25" height="55.67811" viewBox="0,0,77.25,55.67811"><g transform="translate(-203.31943,-154.53716)"><g data-paper-data="{&quot;isPaintingLayer&quot;:true}" fill="#a8a8a8" fill-rule="nonzero" stroke="#a8a8a8" stroke-width="0.5" stroke-linecap="butt" stroke-linejoin="miter" stroke-miterlimit="10" stroke-dasharray="" stroke-dashoffset="0" style="mix-blend-mode: normal"><path d="M262.69443,190.34027c0,8.56041 -7.3873,15.5 -16.5,15.5c-9.1127,0 -16.5,-6.93959 -16.5,-15.5c0,-8.56041 7.3873,-15.5 16.5,-15.5c9.1127,0 16.5,6.93959 16.5,15.5z"/><path d="M242.31943,184.34027c0,10.56245 -6.93959,19.125 -15.5,19.125c-8.56041,0 -15.5,-8.56255 -15.5,-19.125c0,-10.56245 6.93959,-19.125 15.5,-19.125c8.56041,0 15.5,8.56255 15.5,19.125z"/><path d="M254.81943,179.96527c0,9.1127 -8.56255,16.5 -19.125,16.5c-10.56245,0 -19.125,-7.3873 -19.125,-16.5c0,-9.1127 8.56255,-16.5 19.125,-16.5c10.56245,0 19.125,7.3873 19.125,16.5z"/><path d="M241.5068,161.82707c6.35811,7.55199 6.32047,18.04522 -0.08408,23.43729c-6.40455,5.39207 -16.75073,3.64111 -23.10884,-3.91088c-6.35811,-7.55199 -6.32047,-18.04522 0.08408,-23.43729c6.40455,-5.39207 16.75073,-3.64111 23.10884,3.91088z"/><path d="M252.81943,188.09027c0,12.08123 -11.02499,21.875 -24.625,21.875c-13.60001,0 -24.625,-9.79377 -24.625,-21.875c0,-12.08123 11.02499,-21.875 24.625,-21.875c13.60001,0 24.625,9.79377 24.625,21.875z"/><path d="M276.31943,184.71527c0,10.76955 -9.96166,19.5 -22.25,19.5c-12.28834,0 -22.25,-8.73045 -22.25,-19.5c0,-10.76955 9.96166,-19.5 22.25,-19.5c12.28834,0 22.25,8.73045 22.25,19.5z"/><path d="M255.31943,204.84027c0,1.58782 -4.0854,2.875 -9.125,2.875c-5.0396,0 -9.125,-1.28718 -9.125,-2.875c0,-1.58782 4.0854,-2.875 9.125,-2.875c5.0396,0 9.125,1.28718 9.125,2.875z"/><path d="M263.81943,164.45463c0,4.97644 -6.77169,9.01064 -15.125,9.01064c-8.35331,0 -15.125,-4.0342 -15.125,-9.01064c0,-4.97644 6.77169,-9.01064 15.125,-9.01064c8.35331,0 15.125,4.0342 15.125,9.01064z"/><path d="M280.31943,194.34027c0,-4.76346 -6.99555,-8.625 -15.625,-8.625c-8.62945,0 -15.625,3.86154 -15.625,8.625c0,4.76346 6.99555,8.625 15.625,8.625c8.62945,0 15.625,-3.86154 15.625,-8.625z"/></g></g></svg>