<svg version="1.1" xmlns="http://www.w3.org/2000/svg" xmlns:xlink="http://www.w3.org/1999/xlink" width="51.875" height="51.55311" viewBox="0,0,51.875,51.55311"><g transform="translate(-931.06942,-514.53716)"><g data-paper-data="{&quot;isPaintingLayer&quot;:true}" fill-rule="nonzero" stroke-width="0.5" stroke-linecap="butt" stroke-linejoin="miter" stroke-miterlimit="10" stroke-dasharray="" stroke-dashoffset="0" style="mix-blend-mode: normal"><path d="M982.69443,550.34028c0,8.56041 -7.3873,15.5 -16.5,15.5c-9.1127,0 -16.5,-6.93959 -16.5,-15.5c0,-8.56041 7.3873,-15.5 16.5,-15.5c9.1127,0 16.5,6.93959 16.5,15.5z" fill="#a8a8a8" stroke="#a8a8a8"/><path d="M962.31943,544.34028c0,10.56245 -6.93959,19.125 -15.5,19.125c-8.56041,0 -15.5,-8.56255 -15.5,-19.125c0,-10.56245 6.93959,-19.125 15.5,-19.125c8.56041,0 15.5,8.56255 15.5,19.125z" fill="#a8a8a8" stroke="#a8a8a8"/><path d="M974.81943,539.96528c0,9.1127 -8.56255,16.5 -19.125,16.5c-10.56245,0 -19.125,-7.3873 -19.125,-16.5c0,-9.1127 8.56255,-16.5 19.125,-16.5c10.56245,0 19.125,7.3873 19.125,16.5z" fill="#a8a8a8" stroke="#a8a8a8"/><path d="M961.5068,521.82708c6.35811,7.55199 6.32047,18.04522 -0.08408,23.43729c-6.40455,5.39207 -16.75073,3.64111 -23.10884,-3.91088c-6.35811,-7.55199 -6.32047,-18.04522 0.08408,-23.43729c6.40455,-5.39207 16.75073,-3.64111 23.10884,3.91088z" fill="#a8a8a8" stroke="#a8a8a8"/><path d="M948.17423,553.97117l-0.22437,0.35194l-0.16715,0.38244l-1.07711,1.39642l-0.33346,0.26354l-0.29057,0.31019l-1.61488,1.04207l-0.00443,0.01153l-0.0384,0.01611l-0.17338,0.11188l-0.49459,0.16835l-0.42852,0.17978l-0.12646,0.50584l0.00734,0.10845l-0.04748,0.0521l-0.0171,0.06839l-0.09438,0.05393l-0.70894,0.7779l-0.32313,0.21484l-1.21394,0.43186l-0.10343,-0.05188l-0.06681,0.03818l-1.02578,-0.58616l-1.05606,-0.52966l-0.0052,-0.07678l-0.10047,-0.05741l-0.3125,-1.25v-0.53709l0.05081,-0.20324l-0.01661,-0.20884l0.04927,-0.29482l-0.09024,-0.09207l-0.13104,-0.06369l-0.03361,-0.10429l-0.0767,-0.07825l0.00456,-0.14563l-0.28943,-0.8982l-0.01458,-0.21817l-1.29414,-0.73951l-0.12156,-0.48625l-0.22899,0.0762l-0.77248,-0.6735l-0.92347,-0.5277l-0.0887,-0.35478l-0.11438,-0.09972l-0.02077,-0.44086l-0.08866,-0.35464l0,-0.22215l-0.20743,-2.58564l0.04528,-0.27207l-0.02917,-0.27426l0.64627,-4.61895l0.05319,-0.13164l0.0008,-0.14198l1.24008,-4.84378l0.05538,-0.10244l0.01128,-0.1159l0.91414,-2.56804l0.03356,-0.05045l0.00871,-0.05996l0.9694,-2.3632l0.01265,-0.0172l0.00342,-0.02108l0.64626,-1.50384l0.23041,-0.30255l0.17053,-0.33991l1.29253,-1.50385l0.15875,-0.11234l0.11277,-0.15845l0.75397,-0.64451l0.15578,-0.07763l0.11936,-0.12667l1.50796,-0.96676l0.29652,-0.09995l0.26413,-0.16778l0.96939,-0.32225l0.11958,-0.0091l0.06633,-0.06485l0.55007,0.01794l0.54877,-0.04176l0.06908,0.06191l0.11986,0.00391l0.75398,0.21484l0.28445,0.16383l0.31415,0.0952l0.53854,0.32225l0.34058,0.33977l0.37377,0.30288l0.59905,0.79656l2.98658,-0.27924l0.21227,0.03246l0.2117,-0.03599l2.80048,0.21484l0.31603,0.10527l0.33153,0.03232l1.50796,0.53708l0.32199,0.21426l0.35523,0.15294l1.63909,1.25002l0.01547,0.00043l0.0333,0.03676l0.14322,0.10922l0.33177,0.4151l0.35676,0.39382l0.08494,0.15883l0.03097,0.03875l-0.00204,0.01534l0.74782,1.39835l0.0894,0.35588l0.15725,0.33153l0.21541,1.07417l-0.00699,0.14843l0.02111,0.02106l0.2354,0.39126l0.02458,0.01151l0.02266,0.06699l0.04051,0.06734l0.1668,0.54569l0.1828,0.54054l0.00637,0.07833l0.02067,0.06763l-0.01325,0.02368l0.03275,0.40276l0.02152,0.02623l2.32527,1.46194l0.22817,0.23788l0.27589,0.18037l0.66568,0.7192l0.71779,0.2014l0.44951,0.84157l0.12317,0.10739l0.00636,0.1351l0.02801,0.05245l0.03212,0.12813l0.39258,0.42413l0.01354,0.0027l0.02445,0.03835l0.13186,0.14246l0.25328,0.46165l0.28307,0.444l0.06154,0.1841l0.02187,0.03987l-0.00414,0.01317l0.02844,0.0851l0.09306,1.19684l0.00206,0.00556l-0.00148,0.00182l0.00625,0.08037l-0.8194,0.91733l-0.04663,0.05721l-0.01443,0.04587l-0.02829,0.00655l-0.3777,0.46342l0.00472,0.03788l-0.24206,1.99158l0.02818,0.08073l0.17644,0.22852l-0.02909,0.19356l0.18217,0.52181l0.08172,0.89644l0.0632,0.20676l0.18167,0.54985l0.00437,0.0588l0.02132,0.06975l-0.01425,0.02547l0.20397,2.74625l-0.00194,0.01124l0.02453,0.03689l-0.13576,0.60784l-0.10589,0.61375l-0.03673,0.02477l-0.00249,0.01114l-0.64625,1.28902l-0.83958,0.97737l-0.377,0.02054l-0.22569,0.25268l-0.94793,-0.18875l-0.96511,0.05257l-0.18763,-0.2821l-0.37029,-0.07373l-0.69267,-1.08644l-0.10773,-0.32227l0,-0.00005l-0.00003,-0.00005l-0.09507,-0.28445l-0.02812,0.01882l-0.15561,0.05587l-0.01532,0.01241l-0.01424,-0.0018l-2.5076,0.90028l-0.47246,0.04727l-0.46458,0.09808l-2.6989,-0.09969l-0.01783,0.01148l-0.05999,-0.01435l-0.13147,-0.00486l-0.52752,-0.15278l-0.53413,-0.12777l-0.11671,-0.06073l-0.05925,-0.01716l-0.00983,-0.01879l-2.22513,-1.15777l-0.03641,0.00256l-0.4947,-0.4486l-0.49997,-0.44272l-0.00144,-0.03647l-0.15467,-0.23138l-0.19292,-0.01368l-0.12589,-0.1515l-0.54383,-0.23598l-0.44346,-0.3402l-0.34629,0.16382l-0.53855,0.10743l-0.81371,-0.03916zM944.17343,532.41804l-0.21694,0.18545l0.16207,-0.06061l0.05773,-0.12667z" fill="#8b8b8b" stroke="none"/></g></g></svg>