<svg version="1.1" xmlns="http://www.w3.org/2000/svg" xmlns:xlink="http://www.w3.org/1999/xlink" width="13.59091" height="4.64239" viewBox="0,0,13.59091,4.64239"><g transform="translate(-959.07954,-531.82159)"><g data-paper-data="{&quot;isPaintingLayer&quot;:true}" fill-rule="nonzero" stroke-linecap="butt" stroke-linejoin="miter" stroke-miterlimit="10" stroke-dasharray="" stroke-dashoffset="0" style="mix-blend-mode: normal"><path d="M959.32955,536.21399v-4.14239h8.52843v4.14239z" fill="#a7a7a7" stroke="#989898" stroke-width="0.5"/><path d="M961.64441,534.11235c0,-1.26164 2.46827,-2.2844 5.51303,-2.2844c3.04476,0 5.51302,1.02276 5.51302,2.2844c0,1.26164 -2.46827,2.2844 -5.51302,2.2844c-3.04476,0 -5.51303,-1.02276 -5.51303,-2.2844z" fill="#a7a7a7" stroke="none" stroke-width="0"/><path d="M960.24331,536.33583v-4.40916h0.60918v4.40916z" fill="#b76b00" stroke="none" stroke-width="0"/><path d="M961.53098,536.39989v-4.46168h0.52935v4.46168z" fill="#b76b00" stroke="none" stroke-width="0"/><path d="M972.36902,534.76923c-0.15244,0 -0.27602,-0.29291 -0.27602,-0.65424c0,-0.36132 0.12358,-0.65424 0.27602,-0.65424c0.15244,0 0.27602,0.29291 0.27602,0.65424c0,0.36132 -0.12358,0.65424 -0.27602,0.65424z" fill="#b76b00" stroke="none" stroke-width="0"/></g></g></svg>