<svg version="1.1" xmlns="http://www.w3.org/2000/svg" xmlns:xlink="http://www.w3.org/1999/xlink" width="33.70322" height="11.30879" viewBox="0,0,33.70322,11.30879"><g transform="translate(-942.79677,-533.77384)"><g data-paper-data="{&quot;isPaintingLayer&quot;:true}" fill-rule="nonzero" stroke-linejoin="miter" stroke-miterlimit="10" stroke-dasharray="" stroke-dashoffset="0" style="mix-blend-mode: normal"><path d="M947.375,541.9912l-3.25,-2.375h1.875l-2.5,-2.125l4.5,0.125" fill="none" stroke="#ff0000" stroke-width="0.5" stroke-linecap="round"/><path d="M947.1875,543.1787v-6.5h22.375v6.5z" fill="#929292" stroke="#bfaa4c" stroke-width="0" stroke-linecap="butt"/><path d="M943.57624,545.08263l-0.66515,-2.14943l6.09007,-1.88461l0.66515,2.14943z" fill="#929292" stroke="none" stroke-width="0" stroke-linecap="butt"/><path d="M976.5,539.9287c0,1.76041 -3.27392,3.1875 -7.3125,3.1875c-4.03858,0 -7.3125,-1.42709 -7.3125,-3.1875c0,-1.76041 3.27392,-3.1875 7.3125,-3.1875c4.03858,0 7.3125,1.42709 7.3125,3.1875z" fill="#929292" stroke="none" stroke-width="0" stroke-linecap="butt"/><path d="M946.95703,541.9708c-0.25,0 -0.25,-0.25 -0.25,-0.25l0.00486,-0.10458c0.02005,-0.09995 0.03677,-0.20128 0.05056,-0.30381c-0.04405,0.0127 -0.0906,0.0195 -0.13874,0.0195c-0.20787,0 -0.38612,-0.12685 -0.46155,-0.30736l-0.11208,-0.25218c-0.00271,0.00111 -0.00542,0.00221 -0.00814,0.0033l-0.14468,-0.12337l-0.03602,0.07924l-0.6008,-0.27309c-0.17841,-0.07637 -0.30341,-0.25352 -0.30341,-0.45987c0,-0.27614 0.22386,-0.5 0.5,-0.5c0.02115,0 0.04199,0.00131 0.06244,0.00386l0.26261,0.02918c-0.00132,-0.10434 0.00208,-0.2125 0.00792,-0.32093l-0.2133,-0.0711l0.04967,-0.149c-0.232,-0.087 -0.44278,-0.21054 -0.60451,-0.38884l-0.1406,-0.13851c0,0 -0.04913,-0.04914 -0.09245,-0.1291c-0.05127,-0.00441 -0.10593,-0.0054 -0.1651,-0.00224c0,0 -0.5,0 -0.5,-0.5c0,-0.5 0.5,-0.5 0.5,-0.5c0.59833,0.01818 0.95029,0.19628 1.39618,0.43924c0.07338,-0.0619 0.17771,-0.10591 0.32604,-0.10591c0.17404,0 0.2875,0.06058 0.36146,0.13956c-0.00023,-0.02807 -0.00036,-0.05608 -0.00036,-0.08401c0,0 0,-0.25 0.25,-0.25c0.25,0 0.25,0.25 0.25,0.25c0,1.29931 0.24404,2.74529 -0.00486,3.99347l0.00486,0.00653c0,0 0,0.25 -0.25,0.25z" fill="#ff0000" stroke="none" stroke-width="0.5" stroke-linecap="butt"/><path d="M946.95498,538.89386c0.11316,0.06844 0.11316,0.21582 0.11316,0.21582v0.05556c-0.00107,0.26578 -0.01428,0.47055 -0.06005,0.66261c0.26646,0.30996 0.37213,0.63668 0.01854,0.79189c-0.0063,0.03151 -0.0126,0.06302 -0.0189,0.09452l-0.05465,0.27324c-0.02099,0.11685 -0.12317,0.20551 -0.24605,0.20551c-0.13807,0 -0.25,-0.11193 -0.25,-0.25v-0.25153c-0.09512,-0.01051 -0.17415,-0.07439 -0.2065,-0.16103l-0.04424,-0.11059c-0.12638,-0.08034 -0.26356,-0.14162 -0.40682,-0.1713h-0.25911c-0.13807,0 -0.25,-0.11193 -0.25,-0.25c0,-0.06904 0.02798,-0.13154 0.07322,-0.17678l0.22222,-0.22222l0.03125,0.03125c0.04634,-0.06575 0.0928,-0.12995 0.13847,-0.1912c-0.07226,-0.19636 -0.04021,-0.29472 0.05372,-0.32185l-0.01403,-0.07017l0.01092,-0.00218l-0.01456,-0.02221c0,-0.06027 0.00065,-0.11741 0.00191,-0.17153c-0.34775,-0.29445 -0.70529,-0.54167 -0.72212,-0.81306c-0.03541,-0.57119 0.57901,-0.57526 0.86474,-0.42713c0.24619,0.12763 0.44802,0.28946 0.60783,0.47538c0.04378,-0.03772 0.10077,-0.06052 0.1631,-0.06052c0.13807,0 0.25,0.11193 0.25,0.25v0.44444h-0.05256c0.01936,0.05686 0.03618,0.1146 0.05051,0.17307z" fill="#ff6f00" stroke="none" stroke-width="0.5" stroke-linecap="butt"/><path d="M943.08946,535.77498l1.02858,-2.00113l5.66988,2.91429l-1.02858,2.00113z" fill="#929292" stroke="none" stroke-width="0" stroke-linecap="butt"/><text transform="translate(948.15027,539.35821) scale(0.04056,0.04056)" font-size="40" xml:space="preserve" fill="#000000" fill-rule="nonzero" stroke="none" stroke-width="1" stroke-linecap="butt" stroke-linejoin="miter" stroke-miterlimit="10" stroke-dasharray="" stroke-dashoffset="0" font-family="Sans Serif" font-weight="normal" text-anchor="start" style="mix-blend-mode: normal"><tspan x="0" dy="0">Made By</tspan><tspan x="0" dy="46.150000000000006px">Anders Studios       Sent With Love</tspan></text></g></g></svg>