<svg version="1.1" xmlns="http://www.w3.org/2000/svg" xmlns:xlink="http://www.w3.org/1999/xlink" width="91.38008" height="42.51369" viewBox="0,0,91.38008,42.51369"><g transform="translate(-197.38782,-158.74315)"><g data-paper-data="{&quot;isPaintingLayer&quot;:true}" fill-rule="nonzero" stroke-linecap="butt" stroke-linejoin="miter" stroke-miterlimit="10" stroke-dasharray="" stroke-dashoffset="0" style="mix-blend-mode: normal"><path d="M266.03911,201.07182v-5.03214h6.70952v5.03214z" fill="#459542" stroke="#30692e" stroke-width="0"/><path d="M269.90799,198.55818c0,0 -2.08631,2.69866 -3.07078,2.69866c-6.38653,0 -69.44938,-0.20759 -69.44938,-0.20759v-42.3061l70.01502,0.20759c0,0 3.18837,2.109 3.18837,3.54163c0,5.47477 -0.68323,36.06582 -0.68323,36.06582z" data-paper-data="{&quot;index&quot;:null}" fill="#459542" stroke="#000000" stroke-width="0"/><path d="M223.4182,179.01629c0,2.40009 0.62734,6.07086 -0.67616,6.07086c-1.085,0 -5.24618,-1.88612 -6.51431,-4.12292c-0.18386,-0.3243 -0.33843,-0.79611 -0.46725,-1.33285c-0.12882,-0.53673 -0.10676,-0.43898 -0.01998,-0.69724c0.08678,-0.25826 0.25351,-1.24914 0.83211,-1.71964c0.5786,-0.47051 5.07109,-3.94049 6.12836,-3.94049c1.3035,0 0.71724,3.34218 0.71724,5.74227c0,0 -0.00001,-2.40008 -0.00001,0.00001z" fill="#459542" stroke="#30692e" stroke-width="0.5"/><path d="M239.14248,165.39952c8.49,0 15.3725,6.2735 15.3725,14.01224c0,7.73875 -6.88251,14.01224 -15.3725,14.01224c-8.49,0 -18.21972,-6.57321 -18.21972,-14.31195c0,-7.73875 9.72973,-13.71254 18.21972,-13.71254z" data-paper-data="{&quot;index&quot;:null}" fill="#459542" stroke="#30692e" stroke-width="0.5"/><path d="M239.79956,180.34348c3.01867,0 5.46578,2.27704 5.46578,5.08592c0,2.80887 -2.44712,5.08592 -5.46578,5.08592c-3.01867,0 -5.46578,-2.27704 -5.46578,-5.08592c0,-2.80887 2.44712,-5.08592 5.46578,-5.08592z" data-paper-data="{&quot;index&quot;:null}" fill="#459542" stroke="#30692e" stroke-width="0.5"/><g fill="#888888" stroke="none" stroke-width="0"><path d="M234.36461,178.45931l1.1978,-3.09792l8.49664,3.2852l-1.1978,3.09792z" data-paper-data="{&quot;index&quot;:null}"/><path d="M242.44048,180.26722l0.35615,-0.92113l7.71698,2.98375l-0.35615,0.92113z" data-paper-data="{&quot;index&quot;:null}"/></g><g fill="#459542" stroke="#30692e" stroke-width="0.5"><g><path d="M255.62064,181.30197v-2.69866h28.18713v2.69866z" data-paper-data="{&quot;index&quot;:null}"/><path d="M283.81317,182.00426v-3.80523h4.70474v3.80523z"/></g><path d="M253.19593,185.01252v-10.06428h2.75569v10.06428z"/></g><path d="M265.76734,164.25716v-5.03214h6.82933v5.03214z" fill="#459542" stroke="#30692e" stroke-width="0"/><path d="M266.6101,191.32991c0,0.92294 -0.33471,1.67113 -0.74761,1.67113c-0.41289,0 -0.74761,-0.74819 -0.74761,-1.67113c0,-0.92294 0.33472,-1.67112 0.74761,-1.67112c0.41289,0 0.74761,0.74818 0.74761,1.67112z" fill="#459542" stroke="#30692e" stroke-width="0.5"/><path d="M265.84548,191.53739v-0.86473h4.03543v0.86473z" fill="#888888" stroke="none" stroke-width="0"/><path d="M260.25121,190.11793c0,2.18095 -1.53571,3.94896 -3.43012,3.94896c-1.8944,0 -3.43012,-1.76801 -3.43012,-3.94896c0,-2.18095 1.53572,-3.94896 3.43012,-3.94896c1.8944,0 3.43012,1.76801 3.43012,3.94896z" fill="#459542" stroke="#30692e" stroke-width="0.5"/><path d="M260.86987,170.38651c0,2.18095 -1.53571,3.94896 -3.43012,3.94896c-1.8944,0 -3.43012,-1.76801 -3.43012,-3.94896c0,-2.18095 1.53572,-3.94896 3.43012,-3.94896c1.8944,0 3.43012,1.76801 3.43012,3.94896z" fill="#459542" stroke="#30692e" stroke-width="0.5"/><path d="M226.30821,179.12019c0,3.1224 -1.36823,5.65362 -3.05601,5.65362c-1.68778,0 -3.056,-2.53122 -3.056,-5.65362c0,-3.1224 1.36822,-5.65362 3.056,-5.65362c1.68778,0 3.05601,2.53121 3.05601,5.65362z" fill="#459542" stroke="none" stroke-width="0"/><path d="M220.51155,182.54885c0,-1.38071 1.11929,-2.5 2.5,-2.5c1.38071,0 2.5,1.11929 2.5,2.5c0,1.38071 -1.11929,2.5 -2.5,2.5c-1.38071,0 -2.5,-1.11929 -2.5,-2.5z" fill="#459542" stroke="none" stroke-width="0.5"/><path d="M220.49597,175.68959c0.29131,-2.81633 4.72699,-2.6844 5.92514,-0.58764c0.73685,0.43488 1.23117,1.23699 1.23117,2.15454c0,1.38071 -1.11929,2.5 -2.5,2.5c-0.37663,0 -0.7338,-0.08328 -1.05411,-0.23244c-1.99588,0.05572 -3.85121,-1.42701 -3.60219,-3.83446z" fill="#459542" stroke="none" stroke-width="0.5"/></g></g></svg>