<svg version="1.1" xmlns="http://www.w3.org/2000/svg" xmlns:xlink="http://www.w3.org/1999/xlink" width="64.25643" height="32.05905" viewBox="0,0,64.25643,32.05905"><g transform="translate(-929.31935,-523.97049)"><g data-paper-data="{&quot;isPaintingLayer&quot;:true}" fill="#ffe266" fill-rule="nonzero" stroke-linecap="butt" stroke-linejoin="miter" stroke-miterlimit="10" stroke-dasharray="" stroke-dashoffset="0" style="mix-blend-mode: normal"><path d="M929.31935,556.02954v-32.05905h61.3613v32.05905z" stroke="#000000" stroke-width="0"/><path d="M971.98772,538.24389c0,-2.64966 1.94341,-4.79763 4.34072,-4.79763c2.39731,0 4.34072,2.14797 4.34072,4.79763c0,2.64966 -1.94341,4.79764 -4.34072,4.79764c-2.39731,0 -4.34072,-2.14797 -4.34072,-4.79764z" stroke="#bfaa4c" stroke-width="0.5"/><path d="M975.66553,536.76522v-3.77697h1.88848v3.77697z" stroke="#bfaa4c" stroke-width="0.5"/><path d="M987.20307,541.30525v-5.93993h2.28459v5.93993z" stroke="#bfaa4c" stroke-width="0.5"/><path d="M980.95328,539.71775v-2.39208h10.93109v2.39208z" stroke="#bfaa4c" stroke-width="0.5"/><path d="M975.66553,540.16448v-3.39927h5.79134v3.39927z" stroke="#bfaa4c" stroke-width="0.5"/><path d="M975.79143,544.45719v-4.02876h2.89567v4.02876z" stroke="#bfaa4c" stroke-width="0.5"/><path d="M977.11185,539.77621c0,7.31852 -3.51891,13.25135 -10.55809,13.25135c-4.00455,0 -8.58736,-1.4153 -10.92396,-4.4183c-1.77067,-2.27567 -1.82161,-5.67799 -1.82161,-8.83305c0,-7.31852 5.70638,-13.25135 12.74557,-13.25135c7.03918,0 10.55809,5.93283 10.55809,13.25135z" stroke="#bfaa4c" stroke-width="0.5"/><path d="M967.1444,545.82874c0,2.39731 -2.14797,4.34072 -4.79764,4.34072c-2.64966,0 -4.79764,-1.94341 -4.79764,-4.34072c0,-2.39731 2.14797,-4.34072 4.79764,-4.34072c2.64966,0 4.79764,1.94341 4.79764,4.34072z" stroke="#bfaa4c" stroke-width="0.5"/><path d="M992.13779,540.30004v-3.38119h1.18799v3.38119z" stroke="#bfaa4c" stroke-width="0.5"/><path d="M933.01265,549.62114v-7.31068h10.60049v7.31068z" stroke="#bfaa4c" stroke-width="0.5"/><path d="M938.13013,540.66557v-7.58483h8.22452v7.58483z" stroke="#bfaa4c" stroke-width="0.5"/><path d="M974.63784,532.94366c0,0.98416 -0.85919,1.78198 -1.91905,1.78198c-1.05986,0 -1.91905,-0.79782 -1.91905,-1.78198c0,-0.98416 0.85919,-1.78198 1.91905,-1.78198c1.05986,0 1.91905,0.79782 1.91905,1.78198z" stroke="#bfaa4c" stroke-width="0.5"/></g></g></svg>