<svg version="1.1" xmlns="http://www.w3.org/2000/svg" xmlns:xlink="http://www.w3.org/1999/xlink" width="92.6093" height="38.34998" viewBox="0,0,92.6093,38.34998"><g transform="translate(-204.01471,-160.82501)"><g data-paper-data="{&quot;isPaintingLayer&quot;:true}" fill-rule="nonzero" stroke-linecap="butt" stroke-linejoin="miter" stroke-miterlimit="10" stroke-dasharray="" stroke-dashoffset="0" style="mix-blend-mode: normal"><path d="M204.01472,199.17499v-38.34998h71.97057v38.34998z" fill="#59925f" stroke="#59925f" stroke-width="0"/><path d="M257.43676,182.27637v-5.21918h39.18725v5.21918z" fill="#65916c" stroke="none" stroke-width="0"/><path d="M240.05579,191.79368c0,2.59271 -2.2443,4.69452 -5.0128,4.69452c-2.76849,0 -5.01279,-2.10181 -5.01279,-4.69452c0,-2.59271 2.2443,-4.69452 5.01279,-4.69452c2.76849,0 5.0128,2.10181 5.0128,4.69452z" fill="#59925f" stroke="#3e6642" stroke-width="0.5"/><path d="M261.38873,198.0631v-4.94412h11.94831v4.94412z" fill="#59925f" stroke="#3e6642" stroke-width="0.5"/><path d="M261.4446,166.8181v-4.94413h11.94831v4.94413z" fill="#59925f" stroke="#3e6642" stroke-width="0.5"/><path d="M240.77117,191.62446v-8.75562h34.53536v8.75562z" fill="#59925f" stroke="#3e6642" stroke-width="0.5"/><path d="M240.52966,176.8926v-9.53949h35.25987v9.53949z" fill="#59925f" stroke="#3e6642" stroke-width="0.5"/><path d="M243.91075,182.8095v-5.67539h13.16208v5.67539z" fill="#59925f" stroke="#3e6642" stroke-width="0.5"/><path d="M241.17102,181.84347v-3.62259h1.20753v3.62259z" fill="#59925f" stroke="#3e6642" stroke-width="0.5"/></g></g></svg>