<svg version="1.1" xmlns="http://www.w3.org/2000/svg" xmlns:xlink="http://www.w3.org/1999/xlink" width="86.18794" height="35.125" viewBox="0,0,86.18794,35.125"><g transform="translate(-933.12292,-522.4375)"><g data-paper-data="{&quot;isPaintingLayer&quot;:true}" fill="#a7a7a7" fill-rule="nonzero" stroke-width="0.5" stroke-linecap="butt" stroke-linejoin="miter" stroke-miterlimit="10" stroke-dasharray="" stroke-dashoffset="0" style="mix-blend-mode: normal"><path d="M933.37292,557.3125v-34.625h60.21969v34.625z" stroke="#a7a7a7"/><g stroke="#818181"><path d="M985.67829,540.93746v-3.30124h30.0113v3.30124z"/><path d="M1015.53954,543.00824v-6.60249h3.52133v6.60249z"/></g><path d="M975.14345,551.01541v-6.33333h12.33333v6.33333z" stroke="#818181"/><path d="M975.22679,533.76541v-6.33333h12.33334v6.33333z" stroke="#818181"/><path d="M987.66115,541.48597v-4.21052h8.94737v4.21052z" stroke="#818181"/><path d="M975.16673,542.95493v-7.61111h12.38889v7.61111z" stroke="#818181"/><path d="M951.77642,553.93208v-27.83334h23.83333v27.83334z" stroke="#818181"/><path d="M952.98591,526.23734v-2.36842l20.23609,-0.17143l1.34286,2.53985z" stroke="#818181"/><path d="M974.71855,554.13l-1.34285,2.53985l-20.23609,-0.17143v-2.36842z" data-paper-data="{&quot;index&quot;:null}" stroke="#818181"/><path d="M987.47049,531.72514v-3.10345h0.55172v3.10345z" stroke="#818181"/><path d="M957.84025,537.44102c0,1.08553 -0.86455,1.96552 -1.93103,1.96552c-1.06648,0 -1.93103,-0.87999 -1.93103,-1.96552c0,-1.08553 0.86455,-1.96552 1.93103,-1.96552c1.06648,0 1.93103,0.87999 1.93103,1.96552z" stroke="#818181"/></g></g></svg>