<svg version="1.1" xmlns="http://www.w3.org/2000/svg" xmlns:xlink="http://www.w3.org/1999/xlink" width="95.9033" height="38.32015" viewBox="0,0,95.9033,38.32015"><g transform="translate(-920.59925,-520.50738)"><g data-paper-data="{&quot;isPaintingLayer&quot;:true}" fill-rule="nonzero" stroke-linecap="butt" stroke-linejoin="miter" stroke-miterlimit="10" stroke-dasharray="" stroke-dashoffset="0" style="mix-blend-mode: normal"><path d="M920.59925,558.5174v-38.01002h70.81942v38.01002z" fill="#15560e" stroke="#0f3e0a" stroke-width="0"/><g stroke-width="0.5"><g fill="#134f0d" stroke="#134f0d"><path d="M991.85557,541.26308v-3.00848h23.27144v3.00848z"/><path d="M987.4935,541.77831v-4.08121h11.56885v4.08121z"/><path d="M1008.97465,541.51092v-3.39856h7.2779v3.39856z"/></g><path d="M982.35332,544.33691v-9.16754h12.92858v9.16754z" fill="#196510" stroke="#0f3e0a"/></g><g fill="#196510"><path d="M968.62454,558.48412l-0.28485,-17.21216l19.0304,-4.64092l0.28485,17.21218z" stroke="#0f3e0a" stroke-width="0.5"/><path d="M987.77887,526.08498l-0.28485,17.21218l-19.0304,-4.64091l0.28485,-17.21216z" data-paper-data="{&quot;index&quot;:null}" stroke="#0f3e0a" stroke-width="0.5"/><path d="M949.64195,553.86962l0.28485,-17.21218l19.03041,4.64091l-0.28485,17.21216z" data-paper-data="{&quot;index&quot;:null}" stroke="#0f3e0a" stroke-width="0.5"/><path d="M968.50372,521.37296l0.28484,17.21216l-19.0304,4.64091l-0.28485,-17.21218z" data-paper-data="{&quot;index&quot;:null}" stroke="#0f3e0a" stroke-width="0.5"/><path d="M949.94562,553.15662v-27.01347h37.0582v27.01347z" stroke="none" stroke-width="0"/><path d="M967.88959,557.93518v-36.47307h1.65787v36.47307z" stroke="none" stroke-width="0"/></g><path d="M980.37235,538.86971c0,1.8043 -1.57183,3.26697 -3.51078,3.26697c-1.93895,0 -3.51078,-1.46267 -3.51078,-3.26697c0,-1.8043 1.57183,-3.26697 3.51078,-3.26697c1.93895,0 3.51078,1.46267 3.51078,3.26697z" fill="#196510" stroke="#0f3e0a" stroke-width="0.5"/><path d="M980.88635,549.91605c0,1.8043 -1.57182,3.26697 -3.51077,3.26697c-1.93895,0 -3.51077,-1.46267 -3.51077,-3.26697c0,-1.8043 1.57182,-3.26697 3.51077,-3.26697c1.93895,0 3.51077,1.46267 3.51077,3.26697z" fill="#196510" stroke="#0f3e0a" stroke-width="0.5"/><path d="M985.73603,550.5723c0,0.40395 -0.41479,0.73141 -0.92645,0.73141c-0.51167,0 -0.92645,-0.32746 -0.92645,-0.73141c0,-0.40395 0.41479,-0.73141 0.92645,-0.73141c0.51167,0 0.92645,0.32746 0.92645,0.73141z" fill="#196510" stroke="#0f3e0a" stroke-width="0.5"/><path d="" fill="#196510" stroke="#0f3e0a" stroke-width="0.5"/><g fill="#196510" stroke="#0f3e0a" stroke-width="0.5"><path d="M935.90251,557.54509v-5.46121h12.58028v5.46121z"/><path d="M921.8858,557.47397v-5.46121h12.58029v5.46121z"/></g><g fill="#196510" stroke="#0f3e0a" stroke-width="0.5"><path d="M935.73387,526.65716v-5.46121h12.58028v5.46121z"/><path d="M921.71716,526.58604v-5.46121h12.58029v5.46121z"/></g></g></g></svg>