<svg version="1.1" xmlns="http://www.w3.org/2000/svg" xmlns:xlink="http://www.w3.org/1999/xlink" width="99.01376" height="37.51321" viewBox="0,0,99.01376,37.51321"><g transform="translate(-201.11533,-161.2434)"><g data-paper-data="{&quot;isPaintingLayer&quot;:true}" fill-rule="nonzero" stroke-linecap="butt" stroke-linejoin="miter" stroke-miterlimit="10" stroke-dasharray="" stroke-dashoffset="0" style="mix-blend-mode: normal"><path d="M201.36534,198.50662v-37.01321h77.26935v37.01321z" data-paper-data="{&quot;index&quot;:null}" fill="#3ca924" stroke="#30871c" stroke-width="0.5"/><path d="M273.19199,180.8149v-2.84881h26.68711v2.84881z" data-paper-data="{&quot;index&quot;:null}" fill="#9ea89c" stroke="#7a8178" stroke-width="0.5"/><path d="M265.4737,182.23522v-6.01416h9.49605v6.01416z" data-paper-data="{&quot;index&quot;:null}" fill="#3ca924" stroke="#2c7b1a" stroke-width="1"/><path d="M251.56253,169.90672c8.91568,0 16.14328,4.25153 16.14328,9.49605c0,5.24452 -7.2276,9.49605 -16.14328,9.49605c-8.91568,0 -16.14328,-4.25153 -16.14328,-9.49605c0,-5.24452 7.2276,-9.49605 16.14328,-9.49605z" data-paper-data="{&quot;index&quot;:null}" fill="#3ca924" stroke="#2c7b1a" stroke-width="1"/><path d="M271.75329,190.86453c0,1.16574 0.1642,2.15312 -0.73044,2.15312c-0.89465,0 -1.6199,-0.94503 -1.6199,-2.11077c0,-1.16574 0.72525,-2.11077 1.6199,-2.11077c0.89465,0 0.73044,0.90268 0.73044,2.06842z" fill="#3ca924" stroke="#2c7b1a" stroke-width="0.5"/><path d="M270.69033,191.15934v-0.4652h3.98008v0.4652z" fill="#9ea89c" stroke="none" stroke-width="0"/><path d="M223.03981,167.66902v-5.44711h16.44815v5.44711z" fill="#34921f" stroke="#2c7b1a" stroke-width="0.5"/><path d="M204.43669,197.7099v-5.44711h16.44815v5.44711z" fill="#34921f" stroke="#2c7b1a" stroke-width="0.5"/><path d="M222.25666,197.55795v-5.44711h16.44815v5.44711z" fill="#34921f" stroke="#2c7b1a" stroke-width="0.5"/><path d="M254.20994,174.56848c0,1.89489 -1.44833,3.431 -3.23495,3.431c-1.78661,0 -3.23495,-1.53611 -3.23495,-3.431c0,-1.89489 1.44833,-3.431 3.23495,-3.431c1.78661,0 3.23495,1.53611 3.23495,3.431z" fill="#34921f" stroke="#2c7b1a" stroke-width="0.5"/><path d="M254.32975,183.5381c0,1.8197 -1.44833,3.29485 -3.23495,3.29485c-1.78661,0 -3.23495,-1.47516 -3.23495,-3.29485c0,-1.8197 1.44833,-3.29485 3.23495,-3.29485c1.78661,0 3.23495,1.47516 3.23495,3.29485z" fill="#389e21" stroke="#2c7b1a" stroke-width="0.5"/></g></g></svg>