<svg version="1.1" xmlns="http://www.w3.org/2000/svg" xmlns:xlink="http://www.w3.org/1999/xlink" width="102.78998" height="45.78553" viewBox="0,0,102.78998,45.78553"><g transform="translate(-199.375,-157.15205)"><g data-paper-data="{&quot;isPaintingLayer&quot;:true}" fill-rule="nonzero" stroke-width="0.5" stroke-linejoin="miter" stroke-miterlimit="10" stroke-dasharray="" stroke-dashoffset="0" style="mix-blend-mode: normal"><path d="M199.625,202.59795v-45.1959h80.75v45.1959z" fill="#a7a7a7" stroke="#a7a7a7" stroke-linecap="butt"/><path d="M269.12076,157.52596l0.24151,45.16162" fill="none" stroke="#5d5d5d" stroke-linecap="round"/><path d="M258.41498,182.309v-5.75h43.5v5.75z" fill="#a7a7a7" stroke="#5d5d5d" stroke-linecap="butt"/><path d="M259.16859,185.4084v-11.5h2.5v11.5z" fill="#a7a7a7" stroke="#5d5d5d" stroke-linecap="butt"/><path d="M221.653,186.28597c0,0 -0.38332,-0.83339 -0.34676,-1.6236c0.05805,-1.25453 -0.09871,-3.1006 -0.13905,-4.8839c-0.0484,-2.13996 0.01117,-4.18954 0.01117,-5.01808c0,-0.61756 0.61025,-1.35473 0.61025,-1.35473c0,0 0.66217,-0.13561 1.40008,-0.13561c1.16674,0 3.83922,0 3.83922,0v13.42276c0,0 -2.97011,-0.06781 -4.07747,-0.06781c-0.52533,0 -1.29744,-0.33903 -1.29744,-0.33903z" fill="#a7a7a7" stroke="#5d5d5d" stroke-linecap="butt"/><path d="M259.7452,179.68244c0,9.68025 -7.77905,17.52764 -17.375,17.52764c-9.59595,0 -17.375,-7.84739 -17.375,-17.52764c0,-9.68025 7.77905,-17.52763 17.375,-17.52763c9.59595,0 17.375,7.84738 17.375,17.52763z" fill="#a7a7a7" stroke="#5d5d5d" stroke-linecap="butt"/><path d="M261.41859,183.62163v-8.09559h1.375v8.09559z" fill="#a7a7a7" stroke="#5d5d5d" stroke-linecap="butt"/><path d="M243.05268,169.5581c0,3.06825 -2.38781,5.55556 -5.33333,5.55556c-2.94552,0 -5.33333,-2.48731 -5.33333,-5.55556c0,-3.06825 2.38781,-5.55556 5.33333,-5.55556c2.94552,0 5.33333,2.48731 5.33333,5.55556z" fill="#a7a7a7" stroke="#5d5d5d" stroke-linecap="butt"/><path d="M234.06953,193.89143v-7.55556h4.11111v7.55556z" fill="#a7a7a7" stroke="#5d5d5d" stroke-linecap="butt"/><path d="M231.40286,186.66921c0,0.85911 -0.67157,1.55556 -1.5,1.55556c-0.82843,0 -1.5,-0.69645 -1.5,-1.55556c0,-0.85911 0.67157,-1.55556 1.5,-1.55556c0.82843,0 1.5,0.69645 1.5,1.55556z" fill="#a7a7a7" stroke="#5d5d5d" stroke-linecap="butt"/></g></g></svg>