<svg version="1.1" xmlns="http://www.w3.org/2000/svg" xmlns:xlink="http://www.w3.org/1999/xlink" width="114.63238" height="112.25247" viewBox="0,0,114.63238,112.25247"><g transform="translate(-902.68381,-483.87376)"><g data-paper-data="{&quot;isPaintingLayer&quot;:true}" fill-rule="nonzero" stroke-width="0" stroke-linecap="butt" stroke-linejoin="miter" stroke-miterlimit="10" stroke-dasharray="" stroke-dashoffset="0" style="mix-blend-mode: normal"><path d="M1017.31619,540c0,30.99766 -25.66133,56.12624 -57.31619,56.12624c-31.65486,0 -57.31619,-25.12857 -57.31619,-56.12624c0,-30.99766 25.66133,-56.12624 57.31619,-56.12624c31.65486,0 57.31619,25.12857 57.31619,56.12624z" fill="#00a83b" stroke="#000000"/><path d="M1008.052,542.84987c0,25.14867 -21.0883,45.5357 -47.10204,45.5357c-26.01374,0 -47.10204,-20.38703 -47.10204,-45.5357c0,-25.14867 21.0883,-45.5357 47.10204,-45.5357c26.01374,0 47.10204,20.38703 47.10204,45.5357z" fill="#008e32" stroke="none"/><path d="M995.83588,537.93068c0,19.84914 -16.87064,35.94004 -37.68163,35.94004c-20.81099,0 -37.68163,-16.09091 -37.68163,-35.94004c0,-19.84914 16.87064,-35.94004 37.68163,-35.94004c20.81099,0 37.68163,16.09091 37.68163,35.94004z" fill="#007027" stroke="none"/><path d="M973.9327,540c0,7.38878 -6.23788,13.37856 -13.9327,13.37856c-7.69482,0 -13.9327,-5.98979 -13.9327,-13.37856c0,-7.38878 6.23788,-13.37856 13.9327,-13.37856c7.69482,0 13.9327,5.98979 13.9327,13.37856z" fill="#005a1f" stroke="none"/></g></g></svg>